<svg xmlns="http://www.w3.org/2000/svg" viewBox="0 0 50 50" enable-background="new 0 0 50 50" style="fill: #f4dc26;">
    <path style="text-indent:0;text-align:start;line-height:normal;text-transform:none;block-progression:tb;-inkscape-font-specification:Bitstream Vera Sans" d="M 47 0 C 36.491043 0 29.408156 4.9537268 28.375 5.71875 C 27.026829 5.2879017 25.368546 5.0155811 23.1875 5 C 23.121512 4.9995286 23.066973 5 23 5 A 1.0001 1.0001 0 0 0 22.90625 5 C 20.534602 5.0075947 18.750726 5.2899363 17.34375 5.78125 C 16.890821 5.6669969 14.780139 5.1862237 11.71875 6.09375 C 9.2386549 6.8289561 6.2905563 8.5045216 3.375 11.90625 C 3.370578 11.911409 3.3481717 11.901083 3.34375 11.90625 A 1.0059637 1.0059637 0 0 0 3.3125 11.9375 A 1.0059637 1.0059637 0 0 0 2.9375 12.40625 C 1.9881825 13.572211 1.0389783 14.927957 0.125 16.5 A 1.0001 1.0001 0 0 0 1 18 C 5.8400515 18 9.3826553 15.747879 12.25 13.1875 C 12.2117 13.373932 12.18488 13.702719 12.125 13.8125 C 11.405667 15.071332 11.229329 16.5566 11.40625 18 C 10.816441 19.168344 8 25.018272 8 31.1875 C 8 34.965073 8.2761883 37.79529 8.90625 39.9375 C 9.4685801 41.849422 10.335996 43.244076 11.5 44.1875 C 11.16534 44.476139 10.821006 44.789518 10.46875 45.15625 C 9.9705807 45.674892 9.4786764 46.229096 9.1875 46.90625 C 9.0419118 47.244827 8.9491149 47.65075 9 48.09375 C 9.050885 48.53675 9.3222412 48.989043 9.6875 49.28125 C 10.445651 49.870923 11.384565 50.01706 12.40625 50.03125 C 13.427935 50.04544 14.550117 49.893233 15.625 49.5625 C 16.699883 49.231767 17.739288 48.747749 18.5625 48.03125 C 19.162877 47.5087 19.654121 46.827865 19.875 46.03125 C 20.86801 46.023923 21.90224 46 23 46 C 24.09776 46 25.13199 46.023923 26.125 46.03125 C 26.345879 46.827865 26.837123 47.5087 27.4375 48.03125 C 28.260712 48.747749 29.300117 49.231767 30.375 49.5625 C 31.449883 49.893233 32.572065 50.04544 33.59375 50.03125 C 34.615435 50.01706 35.554349 49.870923 36.3125 49.28125 C 36.677759 48.989043 36.949115 48.53675 37 48.09375 C 37.05089 47.65075 36.95809 47.244827 36.8125 46.90625 C 36.521324 46.229096 36.029419 45.674892 35.53125 45.15625 C 35.178994 44.789518 34.83466 44.476139 34.5 44.1875 C 35.664004 43.244076 36.53142 41.849422 37.09375 39.9375 C 37.302966 39.226165 37.459727 38.403802 37.59375 37.53125 L 40.125 36.96875 A 1.0001 1.0001 0 0 0 40.90625 35.9375 L 40.75 33.84375 L 43.59375 32.625 A 1.0001 1.0001 0 0 0 44.1875 31.71875 L 44.3125 26.46875 L 49.5 23.46875 A 1.0001 1.0001 0 0 0 50 22.59375 L 50 14 A 1.0001 1.0001 0 0 0 48.875 13 A 1.0001 1.0001 0 0 0 48.375 13.21875 L 38.375 21.21875 A 1.0001 1.0001 0 0 0 38 22.0625 L 38.375 29.0625 L 37.90625 29.1875 C 37.411703 23.757892 35.097292 18.96301 34.59375 17.96875 C 34.790328 16.505141 34.60953 15.004177 33.875 13.71875 C 33.742751 13.476293 33.60846 12.691905 33.4375 11.71875 C 33.341391 11.17167 32.982852 10.509735 32.75 9.875 C 36.619338 9.672877 40.417884 8.6224137 43.4375 6.5 A 1.015625 1.015625 0 0 0 43.46875 6.46875 C 43.475638 6.463879 43.493121 6.4736323 43.5 6.46875 A 1.015625 1.015625 0 0 0 44.09375 6 C 45.613401 4.8003315 46.922143 3.3087503 47.875 1.46875 A 1.0001 1.0001 0 0 0 47 0 z M 44.78125 2.28125 C 44.283458 2.9180637 43.724332 3.5025679 43.125 4.03125 C 42.717624 3.5393557 42.460571 3.0329764 42.3125 2.59375 C 43.110663 2.469281 43.929179 2.3476958 44.78125 2.28125 z M 40.34375 2.9375 C 40.535832 3.6134085 40.891126 4.4488111 41.53125 5.25 C 38.692988 7.1033299 35.133348 8 31.40625 8 A 1.0001 1.0001 0 0 0 30.5625 9.5625 C 31.090685 10.334462 31.31471 11.185655 31.46875 12.0625 C 31.62279 12.939345 31.657249 13.829957 32.125 14.6875 C 32.745627 15.773597 32.821903 17.383142 32.375 18.84375 C 31.928097 20.304358 30.995579 21.552781 29.875 22.09375 A 1.0063276 1.0063276 0 0 0 30.75 23.90625 C 32.051487 23.277946 33.030119 22.162951 33.6875 20.875 C 34.220692 22.205219 34.846036 24.01032 35.3125 25.96875 C 35.017913 29.528867 34.025962 31.717732 33.15625 33 C 32.58446 33.843024 32.419662 33.862243 32.15625 34.0625 A 1.0001 1.0001 0 0 0 31.78125 33.90625 L 31.1875 33.78125 L 30.90625 33.40625 A 1.0001 1.0001 0 0 0 30.5 33.09375 L 30.21875 32.96875 C 30.21185 29.99031 31.96875 26.90625 31.96875 26.90625 A 1.0021949 1.0021949 0 1 0 30.25 25.875 C 30.25 25.875 27.880568 29.629318 28.21875 33.6875 A 1.0001 1.0001 0 0 0 28.78125 34.5 L 29.4375 34.78125 L 29.78125 35.28125 A 1.0001 1.0001 0 0 0 30.40625 35.6875 L 31.09375 35.8125 L 31.34375 36.125 A 1.0001 1.0001 0 0 0 32.59375 36.375 C 32.59375 36.375 33.737497 35.70994 34.8125 34.125 C 35.215626 33.530648 35.604689 32.7915 35.96875 31.90625 C 35.947952 33.653319 35.870478 35.142603 35.71875 36.4375 A 1.0051139 1.0051139 0 0 0 35.71875 36.53125 C 35.715966 36.554303 35.690326 36.570839 35.6875 36.59375 A 1.0051139 1.0051139 0 0 0 35.6875 36.75 C 35.55792 37.750127 35.369375 38.650374 35.15625 39.375 C 34.614437 41.217165 33.892148 42.226656 32.9375 42.875 C 32.782099 42.98054 32.611798 43.069281 32.4375 43.15625 A 1.0001 1.0001 0 0 0 32.34375 43.1875 C 32.335167 43.191561 32.321128 43.183479 32.3125 43.1875 A 1.0001 1.0001 0 0 0 32.15625 43.28125 C 30.173995 44.117068 27.103249 44 23 44 C 18.822187 44 15.728039 44.105919 13.75 43.21875 A 1.0001 1.0001 0 0 0 13.6875 43.1875 C 13.678872 43.183479 13.664833 43.191561 13.65625 43.1875 A 1.0001 1.0001 0 0 0 13.625 43.15625 C 13.431846 43.062737 13.23293 42.990747 13.0625 42.875 C 12.107852 42.226656 11.385563 41.217165 10.84375 39.375 C 10.339948 37.662071 10.070358 35.191409 10.03125 31.90625 C 10.395311 32.7915 10.784374 33.530648 11.1875 34.125 C 12.262503 35.70994 13.40625 36.375 13.40625 36.375 A 1.0001 1.0001 0 0 0 14.65625 36.125 L 14.90625 35.8125 L 15.59375 35.6875 A 1.0001 1.0001 0 0 0 16.21875 35.28125 L 16.5625 34.78125 L 17.21875 34.5 A 1.0001 1.0001 0 0 0 17.78125 33.6875 C 18.119432 29.629318 15.75 25.875 15.75 25.875 A 1.0021949 1.0021949 0 1 0 14.03125 26.90625 C 14.03125 26.90625 15.788105 29.99031 15.78125 32.96875 L 15.5 33.09375 A 1.0001 1.0001 0 0 0 15.09375 33.40625 L 14.8125 33.78125 L 14.21875 33.90625 A 1.0001 1.0001 0 0 0 13.84375 34.0625 C 13.580338 33.862243 13.41554 33.843024 12.84375 33 C 11.974038 31.717732 10.982087 29.528867 10.6875 25.96875 C 11.14787 24.035903 11.754703 22.299547 12.28125 20.96875 C 12.938737 22.263722 13.935966 23.365639 15.25 24 A 1.0063276 1.0063276 0 0 0 16.125 22.1875 C 15.004421 21.646531 14.071903 20.398108 13.625 18.9375 C 13.178097 17.476892 13.254373 15.867347 13.875 14.78125 C 14.322417 13.960985 14.313368 13.165365 14.40625 12.46875 C 14.49913 11.772135 14.653179 11.140278 15.15625 10.34375 A 1.0004882 1.0004882 0 1 0 13.59375 9.09375 C 11.709691 11.034902 9.6750708 12.946403 7.21875 14.25 C 6.7746195 13.447197 6.1686202 12.873685 5.625 12.5 C 8.0315808 9.8962447 10.35977 8.6008586 12.28125 8.03125 C 15.195806 7.1672513 17.125 7.75 17.125 7.75 A 1.0001 1.0001 0 0 0 17.75 7.71875 C 18.860154 7.2917678 20.512412 7.0126552 22.84375 7 A 1.0001 1.0001 0 0 0 23 7 C 23.033565 7 23.060464 6.999892 23.09375 7 C 25.460346 7.007681 27.129338 7.2877262 28.25 7.71875 A 1.0001 1.0001 0 0 0 29.21875 7.59375 C 29.21875 7.59375 33.534029 4.4244174 40.34375 2.9375 z M 17.5 14 C 16.671573 14 16 14.671573 16 15.5 C 16 16.328427 16.671573 17 17.5 17 C 18.328427 17 19 16.328427 19 15.5 C 19 14.671573 18.328427 14 17.5 14 z M 28.5 14 C 27.671573 14 27 14.671573 27 15.5 C 27 16.328427 27.671573 17 28.5 17 C 29.328427 17 30 16.328427 30 15.5 C 30 14.671573 29.328427 14 28.5 14 z M 4.3125 14.03125 C 4.6480843 14.221389 5.0490054 14.52548 5.375 15.09375 C 4.6627981 15.350838 3.9117047 15.552055 3.125 15.6875 C 3.5246541 15.09998 3.913022 14.540099 4.3125 14.03125 z M 48 16.09375 L 48 22.03125 L 42.8125 25.03125 A 1.0001 1.0001 0 0 0 42.3125 25.875 L 42.1875 31.03125 L 39.3125 32.28125 A 1.0001 1.0001 0 0 0 38.6875 33.28125 L 38.84375 35.21875 L 37.84375 35.4375 C 37.945456 34.183938 37.998654 32.809429 38 31.25 L 39.6875 30.75 A 1.0001 1.0001 0 0 0 40.40625 29.75 L 40.03125 22.46875 L 48 16.09375 z M 23 17.5 C 22.447715 17.5 22 17.723858 22 18 C 22 18.276142 22.447715 18.5 23 18.5 C 23.552285 18.5 24 18.276142 24 18 C 24 17.723858 23.552285 17.5 23 17.5 z M 13.375 45.21875 C 14.657411 45.727856 16.082087 45.938783 17.6875 46 C 17.572582 46.16463 17.440573 46.334131 17.25 46.5 C 16.723212 46.958501 15.906367 47.386983 15.03125 47.65625 C 14.156133 47.925517 13.215815 48.04206 12.4375 48.03125 C 11.723293 48.02135 11.228726 47.863865 11.03125 47.75 C 11.03805 47.72245 11.00972 47.73757 11.03125 47.6875 C 11.143199 47.427154 11.491919 46.962608 11.90625 46.53125 C 12.469638 45.944708 13.007609 45.50445 13.375 45.21875 z M 32.625 45.21875 C 32.992391 45.50445 33.530362 45.944708 34.09375 46.53125 C 34.508081 46.962608 34.856801 47.427154 34.96875 47.6875 C 34.99028 47.73757 34.96195 47.72245 34.96875 47.75 C 34.771274 47.863865 34.276707 48.02133 33.5625 48.03125 C 32.784185 48.04206 31.843867 47.925517 30.96875 47.65625 C 30.093633 47.386983 29.276788 46.958501 28.75 46.5 C 28.559427 46.334131 28.427418 46.16463 28.3125 46 C 29.917913 45.938783 31.342589 45.727856 32.625 45.21875 z"/>
</svg>